PathFileType	4	(X/Y/Z)	C:/Users/opensim2020/Desktop/walking_exp_matlab/subject01_walking05_straight_04.trc	
DataRate	CameraRate	NumFrames	NumMarkers	Units	OrigDataRate	OrigDataStartFrame	OrigNumFrames	
100.00	100.00	5	43	mm	100.00	2881	283	
Frame#	Time	LFHD			RFHD			LBHD			RBHD			C7			T10			CLAV			STRN			RBAK			LSHO			LUPA			LELB			LFRM			LWRA			LWRB			LFIN			RSHO			RUPA			RELB			RFRM			RWRA			RWRB			RFIN			LASI			RASI			LPSI			RPSI			LTHI			LKNE			LTIB			LANK			LHEE			LTOE			RTHI			RKNE			RTIB			RANK			RHEE			RTOE			*39			*40			*41			*42			
		X1	Y1	Z1	X2	Y2	Z2	X3	Y3	Z3	X4	Y4	Z4	X5	Y5	Z5	X6	Y6	Z6	X7	Y7	Z7	X8	Y8	Z8	X9	Y9	Z9	X10	Y10	Z10	X11	Y11	Z11	X12	Y12	Z12	X13	Y13	Z13	X14	Y14	Z14	X15	Y15	Z15	X16	Y16	Z16	X17	Y17	Z17	X18	Y18	Z18	X19	Y19	Z19	X20	Y20	Z20	X21	Y21	Z21	X22	Y22	Z22	X23	Y23	Z23	X24	Y24	Z24	X25	Y25	Z25	X26	Y26	Z26	X27	Y27	Z27	X28	Y28	Z28	X29	Y29	Z29	X30	Y30	Z30	X31	Y31	Z31	X32	Y32	Z32	X33	Y33	Z33	X34	Y34	Z34	X35	Y35	Z35	X36	Y36	Z36	X37	Y37	Z37	X38	Y38	Z38	X39	Y39	Z39	X40	Y40	Z40	X41	Y41	Z41	X42	Y42	Z42	X43	Y43	Z43	

107	1.060	1544.74121	472.90939	1674.30823	1432.92505	452.07590	1682.95105	1527.47253	588.67590	1630.11169	1408.74463	570.42548	1638.27197	1483.16895	623.63483	1436.31604	1467.47791	659.35138	1144.38879	1479.54578	480.20303	1368.60522	1478.21570	436.63412	1214.10706	1400.26685	679.02252	1243.76379	1640.71851	543.14813	1394.17310	1724.51746	562.49670	1210.35498	1730.64331	560.97876	1059.01440	1759.79785	507.40479	959.44031	1744.52393	413.26321	855.51617	1770.73889	466.91055	844.66443	1780.54309	410.14383	781.99084	1330.32239	546.68292	1401.26672	1223.49988	609.45673	1205.76013	1218.45081	613.43671	1081.60535	1184.54614	594.43854	964.21399	1201.94666	525.90979	839.54620	1160.11768	567.03607	846.64337	1163.89014	539.27679	764.03461	1568.54297	487.31628	935.52283	1351.88721	492.89813	941.97333	1517.41418	674.97162	949.25604	1371.92896	674.94684	950.30627	1608.24658	516.58209	601.63806	1585.74780	526.09216	467.73813	1590.17505	585.90613	286.05365	1528.63062	623.92212	73.04353	1476.18811	670.82196	45.45732	1528.04187	476.70239	34.74063	1281.88879	466.12927	618.08020	1298.60022	430.95270	465.13812	1303.85852	568.37653	356.34930	1355.74707	704.08301	202.76942	1414.59888	755.96576	201.65730	1342.46143	636.80756	75.31545	1455.47424	465.18518	1716.35315	-3101.90332	1973.19849	1023.30646	-3140.65820	2012.54480	1021.95752			 
108	1.070	1544.51782	463.26804	1674.41296	1432.68188	442.45169	1682.84412	1527.38745	579.10999	1630.35339	1408.57666	560.89313	1638.29602	1483.49426	614.26532	1436.42322	1468.06958	650.19049	1144.55212	1479.66028	470.94247	1368.67261	1478.65674	427.52722	1214.08545	1400.91418	669.85248	1243.82581	1640.95679	533.73157	1394.58044	1725.26025	552.36719	1210.92969	1732.05872	548.75922	1059.47705	1761.63513	492.43930	961.34277	1747.22021	394.94638	860.56250	1772.63086	448.46234	847.90729	1783.79773	389.90225	787.65515	1330.55139	537.54779	1401.21021	1224.53943	602.39685	1205.76501	1219.48364	606.98132	1081.84253	1185.29370	589.85107	964.33057	1201.87109	522.74927	838.68262	1160.33984	564.21313	846.38507	1163.60559	537.79083	763.51514	1569.51355	479.11124	935.33850	1352.94653	483.62598	942.37158	1517.14856	666.38904	949.30157	1371.62036	665.63507	950.64838	1608.68640	511.58255	601.26624	1586.22559	523.07349	467.36105	1590.31860	584.25525	286.26489	1528.57166	623.70258	73.39602	1476.24695	670.82996	46.35688	1528.04321	476.51242	34.70205	1281.97791	452.48672	619.81329	1299.50623	415.35065	467.35382	1303.89172	549.00690	353.28067	1356.11694	679.41895	195.27045	1414.94751	732.10822	191.14095	1341.94226	605.02240	72.68976	1455.27271	455.84412	1715.94006	-3101.90649	1973.12561	1023.49750	-3140.48877	2012.65222	1022.11285			 
109	1.080	1544.23096	453.62271	1674.44702	1432.45728	432.94403	1682.73083	1527.45618	569.70190	1630.58972	1408.34119	551.32343	1638.19531	1483.71716	604.88708	1436.49512	1468.64636	641.41791	1144.72461	1479.82996	461.65875	1368.65076	1479.02209	418.25888	1213.97571	1401.60156	660.67627	1243.79724	1641.08899	524.26184	1394.92737	1726.18262	542.31299	1211.61169	1733.40833	536.74603	1059.93091	1763.20703	477.71741	963.16284	1749.89709	376.82416	865.90070	1774.42615	430.22455	851.29419	1786.66675	369.84528	793.28815	1330.68530	528.57770	1401.12012	1225.66138	595.30988	1205.82654	1220.58521	600.50281	1082.07495	1186.11096	585.29633	964.57806	1201.85266	519.67108	837.87811	1160.72888	561.49493	846.22986	1163.49536	536.18793	763.15167	1570.28516	470.94797	934.96906	1353.88892	474.32779	942.80829	1516.95422	657.80573	949.22650	1371.32104	656.38525	950.83136	1609.00623	506.77048	600.85748	1586.60889	519.95795	466.97733	1590.37146	582.17645	286.35953	1528.54565	623.36969	73.73659	1476.37683	671.01587	47.49881	1528.00671	476.20972	34.65126	1282.14221	439.19696	621.57617	1300.54993	400.43756	469.30338	1304.05090	529.64984	349.56830	1355.79468	653.88611	186.80827	1414.80603	707.00378	179.28435	1341.40002	572.32104	69.86766	1454.91211	446.23035	1715.82214	-3101.92896	1973.10059	1023.39807	-3140.65161	2012.54138	1022.03540			 
110	1.090	1543.96667	444.11591	1674.46851	1432.04993	423.38416	1682.49854	1527.24768	560.18030	1630.63611	1408.26660	541.88092	1638.08130	1483.86389	595.48224	1436.48596	1469.15723	631.90814	1144.68213	1479.95752	452.30209	1368.62183	1479.44702	409.07056	1213.83679	1402.27832	651.42993	1243.67480	1641.22742	514.79224	1395.27966	1726.58386	532.34161	1212.03345	1734.70471	524.80713	1060.34302	1764.78149	463.06201	965.08191	1752.33655	359.04111	871.35663	1775.99585	412.27408	854.78522	1789.25513	350.01151	799.09680	1330.62842	519.36090	1400.89636	1226.66296	587.99286	1205.85156	1221.48779	594.08197	1082.28125	1186.88293	580.72681	964.66736	1201.78601	516.69720	837.09888	1161.00049	558.49677	846.13507	1163.29272	534.28943	762.75970	1570.89465	462.65933	934.49475	1354.70264	464.95575	943.07709	1516.65698	649.21655	949.06335	1370.93518	647.09412	950.92590	1608.87720	501.89587	600.59985	1586.88525	516.61847	466.59348	1590.46814	580.06140	286.58548	1528.53271	623.04468	74.22279	1476.31543	670.79126	48.22395	1528.18347	476.43506	34.63060	1282.67529	426.85242	623.06262	1301.48914	385.92535	471.00854	1304.12866	510.56464	345.48584	1356.21155	627.77148	177.59117	1414.57251	680.67816	166.61261	1340.94910	539.21887	66.72649	1454.57434	436.69644	1715.70825	-3101.86450	1973.17944	1023.19409	-3140.71021	2012.45435	1021.92365			 
111	1.100	1543.55310	434.54535	1674.46252	1431.66992	413.87521	1682.31531	1527.05444	550.69391	1630.61743	1407.92505	532.41797	1637.84106	1483.86438	586.01666	1436.38611	1469.62317	622.76147	1144.68347	1479.87585	442.90808	1368.43237	1479.80859	399.90353	1213.62280	1402.88733	642.11169	1243.43970	1641.27051	505.31201	1395.53723	1727.23694	522.37274	1212.55737	1735.92322	513.03925	1060.72034	1766.24561	448.64285	967.03143	1754.52588	341.57526	876.80286	1777.51672	394.47418	858.38879	1791.61816	330.50046	805.06128	1330.70386	510.20374	1400.65210	1227.58899	580.69501	1205.81702	1222.51794	587.54712	1082.36951	1187.50916	575.82159	964.72595	1201.38049	512.84302	836.60736	1161.45337	555.29431	846.16339	1163.03125	531.97400	762.40430	1571.37585	454.38834	933.91962	1355.33386	455.60693	943.21259	1516.35059	640.64307	948.85010	1370.61133	637.82452	950.89410	1609.22070	497.13705	600.29211	1587.14478	513.32147	466.17920	1590.38257	577.81110	286.67261	1528.49524	622.65100	74.70999	1476.14307	670.36108	48.90030	1528.19080	476.28369	34.51140	1282.85144	413.79523	624.85767	1302.60864	372.39490	472.28946	1304.82129	491.08984	340.88251	1356.25146	601.03296	167.99327	1414.43445	653.45020	153.64336	1340.32922	505.54208	63.56305	1454.03455	426.86368	1715.91345	-3101.84351	1973.19873	1023.41504	-3140.47021	2012.58105	1022.01691			 
